#!OML:ASF F:\VICON\USERDATA\INSTALL\rory3\rory3.ASF
:FULLY-SPECIFIED
:DEGREES
530
root -0.115163 17.9708 -0.74335 5.85752 28.9871 -6.50962
lowerback 5.09793 4.63303 -2.25962
upperback -0.412188 5.93683 -3.33898
thorax -3.1484 2.96989 -2.6404
lowerneck -22.9817 -11.2766 -13.0106
upperneck 20.8605 -14.0277 10.3943
head 12.406 -6.07359 3.43812
rclavicle 7.87187e-014 -3.18055e-014
rhumerus 44.5151 7.12224 -20.5899
rradius 62.4232
rwrist 53.8582
rhand -64.2478 -5.20873
rfingers 7.12502
rthumb -36.1857 -31.4794
lclavicle 7.87187e-014 -3.18055e-014
lhumerus -34.0665 5.52072 72.3537
lradius 43.4962
lwrist -3.92136
lhand -13.3228 27.0206
lfingers 7.12502
lthumb 12.782 56.6093
rfemur -9.9508 -7.89014 19.9986
rtibia 19.4886
rfoot -24.0427 -22.9447
rtoes 7.78594
lfemur -22.1006 -6.15727 -10.478
ltibia 28.0817
lfoot -12.6953 -9.86332
ltoes -8.27335
531
root -0.121882 17.9652 -0.739512 5.76974 28.833 -6.51641
lowerback 5.10405 4.51332 -2.33975
upperback -0.327836 5.77731 -3.24319
thorax -3.08639 2.89214 -2.48136
lowerneck -23.4245 -11.1165 -13.0359
upperneck 21.3318 -13.7284 10.2222
head 12.6212 -5.94147 3.42975
rclavicle 9.93923e-015 -2.06736e-014
rhumerus 44.0398 6.69947 -20.5507
rradius 62.65
rwrist 53.6996
rhand -64.613 -4.85308
rfingers 7.12502
rthumb -36.5315 -31.0372
lclavicle 9.93923e-015 -2.06736e-014
lhumerus -34.0694 5.75684 72.318
lradius 43.417
lwrist -4.34991
lhand -12.5106 25.9981
lfingers 7.12502
lthumb 13.5649 55.5363
rfemur -9.89267 -7.62782 20.0168
rtibia 19.5673
rfoot -24.2889 -22.9146
rtoes 9.28365
lfemur -21.9928 -6.25995 -10.4088
ltibia 28.144
lfoot -12.8281 -9.74101
ltoes -8.67565
532
root -0.128243 17.9582 -0.737882 5.72949 28.7226 -6.34609
lowerback 5.20805 4.40772 -2.56234
upperback -0.350059 5.61733 -3.22167
thorax -3.19492 2.81566 -2.33574
lowerneck -23.4249 -10.9407 -12.9668
upperneck 21.6344 -13.4784 10.0421
head 12.6859 -5.84477 3.40691
rclavicle -3.97569e-015 1.59028e-015
rhumerus 43.4515 6.29569 -20.7574
rradius 62.694
rwrist 53.5238
rhand -63.0913 -5.51044
rfingers 7.12502
rthumb -35.0895 -32.0456
lclavicle -3.97569e-015 1.59028e-015
lhumerus -34.2359 5.72581 72.3056
lradius 43.3653
lwrist -4.32224
lhand -12.374 25.3399
lfingers 7.12502
lthumb 13.6965 54.8692
rfemur -9.78812 -7.53226 19.8601
rtibia 19.6493
rfoot -24.4412 -22.7985
rtoes 9.31843
lfemur -21.8864 -6.3553 -10.5238
ltibia 28.2406
lfoot -12.9009 -9.74702
ltoes -8.43315
533
root -0.133652 17.9463 -0.736203 5.63222 28.6352 -6.27006
lowerback 5.29026 4.32981 -2.63381
upperback -0.374803 5.50396 -3.2244
thorax -3.2752 2.76022 -2.29907
lowerneck -23.2675 -10.782 -12.7353
upperneck 21.8547 -13.2807 9.71825
head 12.6696 -5.78302 3.29639
rclavicle -8.74653e-014 1.90833e-014
rhumerus 42.7247 5.81592 -21.0891
rradius 62.755
rwrist 53.2246
rhand -62.3977 -6.36983
rfingers 7.12502
rthumb -34.4313 -33.0568
lclavicle -8.74653e-014 1.90833e-014
lhumerus -34.3897 5.4874 72.3162
lradius 43.3949
lwrist -4.2034
lhand -12.6076 25.4498
lfingers 7.12502
lthumb 13.4715 54.9941
rfemur -9.69437 -7.5023 19.7982
rtibia 19.7616
rfoot -24.4292 -22.7966
rtoes 8.02015
lfemur -21.7771 -6.48471 -10.5388
ltibia 28.3264
lfoot -12.8962 -9.7629
ltoes -8.08142
534
root -0.140927 17.94 -0.735189 5.50788 28.486 -6.28302
lowerback 5.38051 4.27558 -2.61529
upperback -0.403249 5.42705 -3.23565
thorax -3.35375 2.72144 -2.32404
lowerneck -23.0912 -10.6382 -12.6355
upperneck 22.0438 -13.1237 9.62434
head 12.6748 -5.72172 3.28608
rclavicle -7.83212e-014 7.95139e-015
rhumerus 42.0974 5.15397 -21.5196
rradius 62.4097
rwrist 52.834
rhand -62.3828 -7.12441
rfingers 7.12502
rthumb -34.4172 -33.8146
lclavicle -7.83212e-014 7.95139e-015
lhumerus -34.5794 5.12039 72.3171
lradius 43.5133
lwrist -4.00133
lhand -12.9931 25.6424
lfingers 7.12502
lthumb 13.0999 55.211
rfemur -9.61866 -7.42098 19.8081
rtibia 19.8923
rfoot -24.5818 -22.6566
rtoes 8.29151
lfemur -21.6709 -6.50724 -10.4697
ltibia 28.3881
lfoot -12.9201 -9.85705
ltoes -8.06483
535
root -0.149109 17.9352 -0.734605 5.40344 28.3786 -6.32511
lowerback 5.44268 4.16168 -2.59572
upperback -0.408766 5.27456 -3.18865
thorax -3.39961 2.64536 -2.27937
lowerneck -23.0523 -10.4485 -12.6103
upperneck 22.2108 -12.8488 9.51698
head 12.6871 -5.61201 3.30217
rclavicle 6.20208e-014 1.74931e-014
rhumerus 41.7648 4.25114 -21.9811
rradius 61.8548
rwrist 52.4101
rhand -62.3749 -7.98682
rfingers 7.12502
rthumb -34.4097 -34.6787
lclavicle 6.20208e-014 1.74931e-014
lhumerus -34.7026 4.8483 72.4024
lradius 43.625
lwrist -3.54836
lhand -13.4919 25.3725
lfingers 7.12502
lthumb 12.619 54.9713
rfemur -9.51207 -7.18729 19.8306
rtibia 19.9609
rfoot -25.0594 -22.3272
rtoes 10.6276
lfemur -21.6238 -6.62176 -10.3574
ltibia 28.4579
lfoot -12.9801 -9.87326
ltoes -8.25995
536
root -0.156595 17.9295 -0.733427 5.37222 28.1826 -6.28161
lowerback 5.44365 4.0718 -2.68581
upperback -0.378323 5.15162 -3.12267
thorax -3.38473 2.586 -2.15006
lowerneck -23.1472 -10.2694 -12.7431
upperneck 22.4253 -12.5558 9.53619
head 12.765 -5.48659 3.39182
rclavicle -2.06736e-014 -8.90555e-014
rhumerus 41.5012 3.16457 -22.5138
rradius 61.5884
rwrist 52.1706
rhand -62.1939 -8.32401
rfingers 7.12502
rthumb -34.2379 -35.0547
lclavicle -2.06736e-014 -8.90555e-014
lhumerus -34.8758 4.21019 72.7373
lradius 44.0724
lwrist -2.48852
lhand -14.4453 25.4684
lfingers 7.12502
lthumb 11.6997 55.1217
rfemur -9.46336 -7.03097 19.7951
rtibia 19.9592
rfoot -25.0199 -22.2498
rtoes 10.7959
lfemur -21.601 -6.71118 -10.3483
ltibia 28.5336
lfoot -13.0611 -9.74679
ltoes -9.58421
537
root -0.161542 17.9285 -0.726542 5.35276 27.8745 -6.08128
lowerback 5.41233 4.03177 -2.95876
upperback -0.288169 5.08646 -3.07841
thorax -3.30267 2.55802 -1.94163
lowerneck -23.3801 -10.1141 -12.7975
upperneck 22.6414 -12.2824 9.47407
head 12.8597 -5.36927 3.42981
rclavicle 8.15017e-014 -3.02153e-014
rhumerus 41.3063 2.00819 -23.1983
rradius 61.227
rwrist 51.9059
rhand -62.1056 -8.25365
rfingers 7.12502
rthumb -34.154 -35.0031
lclavicle 8.15017e-014 -3.02153e-014
lhumerus -35.015 3.7134 72.9271
lradius 44.4481
lwrist -2.03087
lhand -14.5875 26.1192
lfingers 7.12502
lthumb 11.5625 55.7802
rfemur -9.37594 -7.21615 19.6188
rtibia 19.9388
rfoot -24.3402 -22.2555
rtoes 8.81253
lfemur -21.4441 -6.61586 -10.5333
ltibia 28.6107
lfoot -13.159 -9.709
ltoes -11.3601
538
root -0.16754 17.9325 -0.721926 5.2632 27.652 -5.98364
lowerback 5.4357 3.97911 -3.06157
upperback -0.223654 5.01068 -3.0887
thorax -3.25757 2.52162 -1.88777
lowerneck -23.6583 -9.94016 -12.5142
upperneck 22.9433 -12.0301 9.15001
head 12.9546 -5.26385 3.30806
rclavicle 8.26944e-014 -3.81667e-014
rhumerus 41.0865 0.907361 -24.0771
rradius 60.7049
rwrist 51.0903
rhand -61.7003 -9.11771
rfingers 7.12502
rthumb -33.769 -35.9525
lclavicle 8.26944e-014 -3.81667e-014
lhumerus -34.9283 3.80067 72.7095
lradius 44.2803
lwrist -2.71975
lhand -13.9517 26.3404
lfingers 7.12502
lthumb 12.1757 55.966
rfemur -9.22814 -7.30788 19.5291
rtibia 19.9041
rfoot -24.0213 -22.1652
rtoes 8.32423
lfemur -21.2429 -6.68647 -10.5896
ltibia 28.6841
lfoot -13.2721 -9.59442
ltoes -12.083
539
root -0.175646 17.9314 -0.722379 5.19075 27.5877 -6.08681
lowerback 5.39918 3.91286 -2.92438
upperback -0.262953 4.93159 -3.09743
thorax -3.26588 2.48031 -1.96464
lowerneck -23.6738 -9.71993 -12.0669
upperneck 23.3226 -11.7666 8.67644
head 13.0073 -5.16676 3.11249
rclavicle -6.55989e-014 6.36111e-015
rhumerus 40.749 -0.169675 -25.0635
rradius 60.1637
rwrist 50.032
rhand -61.3164 -8.70651
rfingers 7.12502
rthumb -33.4042 -35.6206
lclavicle -6.55989e-014 6.36111e-015
lhumerus -34.8663 3.68122 72.5441
lradius 44.099
lwrist -3.17398
lhand -13.7147 26.5374
lfingers 7.12502
lthumb 12.4042 56.1493
rfemur -9.22006 -7.32751 19.6487
rtibia 19.9115
rfoot -23.9465 -22.1232
rtoes 8.2698
lfemur -21.2106 -6.85862 -10.4201
ltibia 28.7384
lfoot -13.3213 -9.46695
ltoes -12.1531
540
root -0.186208 17.9314 -0.724193 5.09658 27.5247 -6.12598
lowerback 5.48584 3.86603 -2.85478
upperback -0.313803 4.86676 -3.11852
thorax -3.36009 2.44699 -2.02869
lowerneck -23.4966 -9.53941 -11.8995
upperneck 23.6507 -11.5748 8.53487
head 13.0595 -5.08894 3.08009
rclavicle -3.97569e-014 2.22639e-014
rhumerus 40.5092 -1.52802 -26.398
rradius 59.4922
rwrist 49.4461
rhand -61.3013 -5.97514
rfingers 7.12502
rthumb -33.3898 -32.8923
lclavicle -3.97569e-014 2.22639e-014
lhumerus -34.9008 3.27455 72.4837
lradius 44.0981
lwrist -3.17458
lhand -13.8705 26.3647
lfingers 7.12502
lthumb 12.254 55.9857
rfemur -9.20479 -7.31186 19.7005
rtibia 19.9914
rfoot -23.9305 -22.072
rtoes 8.3464
lfemur -21.1505 -7.0468 -10.3295
ltibia 28.7644
lfoot -13.3475 -9.26244
ltoes -12.4425
541
root -0.197967 17.9314 -0.724096 5.07549 27.4227 -6.05148
lowerback 5.53554 3.75257 -2.97891
upperback -0.265585 4.70914 -3.02587
thorax -3.35759 2.37092 -1.85286
lowerneck -23.5128 -9.35658 -12.0342
upperneck 23.7811 -11.24 8.44595
head 13.0778 -4.96523 3.13772
rclavicle -3.02153e-014 -1.59028e-015
rhumerus 40.9219 -2.94022 -27.7696
rradius 58.5882
rwrist 49.0564
rhand -61.0674 -5.31204
rfingers 7.12502
rthumb -33.1674 -32.2768
lclavicle -3.02153e-014 -1.59028e-015
lhumerus -34.8417 3.34837 72.4891
lradius 44.061
lwrist -3.2497
lhand -13.865 25.9244
lfingers 7.12502
lthumb 12.2593 55.545
rfemur -9.23744 -7.3838 19.6348
rtibia 20.1267
rfoot -23.9664 -21.787
rtoes 8.81751
lfemur -21.0783 -7.17438 -10.3534
ltibia 28.7491
lfoot -13.3476 -9.12191
ltoes -12.5139
542
root -0.207516 17.9315 -0.72256 4.96115 27.3206 -6.08967
lowerback 5.60645 3.8003 -2.88932
upperback -0.349752 4.7707 -3.06171
thorax -3.47375 2.40013 -1.95421
lowerneck -22.8354 -9.21984 -11.9417
upperneck 23.6607 -11.1551 8.46039
head 12.8809 -4.93918 3.164
rclavicle -4.6118e-014 -1.74931e-014
rhumerus 40.73 -4.24339 -28.8894
rradius 57.5477
rwrist 48.2261
rhand -60.924 -6.2304
rfingers 7.12502
rthumb -33.031 -33.2241
lclavicle -4.6118e-014 -1.74931e-014
lhumerus -34.8373 2.7724 72.4774
lradius 44.0083
lwrist -3.1659
lhand -13.8465 25.7226
lfingers 7.12502
lthumb 12.2771 55.3422
rfemur -9.22059 -7.52241 19.6595
rtibia 20.2841
rfoot -24.0743 -21.3649
rtoes 9.70316
lfemur -20.9246 -7.23557 -10.2843
ltibia 28.6737
lfoot -13.305 -9.06014
ltoes -12.2805
543
root -0.218028 17.9347 -0.71928 4.81607 27.1706 -6.17003
lowerback 5.67245 3.71953 -2.80293
upperback -0.276028 4.67078 -2.97845
thorax -3.43519 2.34909 -1.90854
lowerneck -23.1592 -9.08761 -11.9012
upperneck 23.9458 -10.8923 8.23569
head 13.0087 -4.83813 3.11829
rclavicle 3.1408e-014 -4.77083e-015
rhumerus 41.0724 -5.52879 -30.0559
rradius 56.5359
rwrist 47.2277
rhand -60.8468 -7.2793
rfingers 7.12502
rthumb -32.9577 -34.2884
lclavicle 3.1408e-014 -4.77083e-015
lhumerus -34.5165 3.06118 72.4274
lradius 43.7792
lwrist -3.33457
lhand -13.8415 25.9437
lfingers 7.12502
lthumb 12.282 55.563
rfemur -9.21583 -7.58493 19.7467
rtibia 20.4589
rfoot -24.066 -21.1591
rtoes 10.1446
lfemur -20.7064 -7.25693 -10.1726
ltibia 28.5479
lfoot -13.2936 -8.974
ltoes -12.4008
